<?xml version="1.0" encoding="utf-8"?>
<!-- Generator: Adobe Illustrator 23.0.4, SVG Export Plug-In . SVG Version: 6.00 Build 0)  -->
<svg version="1.1" id="Layer_1" focusable="false" xmlns="http://www.w3.org/2000/svg" xmlns:xlink="http://www.w3.org/1999/xlink"
	 x="0px" y="0px" viewBox="0 0 576 512" style="enable-background:new 0 0 576 512;" xml:space="preserve">
<path d="M239.5,420.1c0.6,0.4,0.9,0.5,0.9,0.5L239.5,420.1z"/>
<path d="M333.3,420.6l0.2-0.1C333.2,420.6,333.2,420.7,333.3,420.6z"/>
<path d="M336.4,262.4c-16.2-4.1,50.4-82.9-68-177.2c0,0,15.5,49.4-62.8,159.6c-74.3,104.3,23.5,168.7,34,175.2
	c-6.7-4.4-47.4-35.7,9.6-128.6c11-18.3,25.5-34.9,43.5-72.2c0,0,15.9,22.4,7.6,71.1C287.7,364,354,342.9,355,343.9
	c22.8,26.8-17.7,73.5-21.6,76.5c5.5-3.6,117.7-78,33-188.1C360.4,238.4,352.6,266.6,336.4,262.4z"/>
</svg>
