<?xml version="1.0" encoding="utf-8"?>
<!-- Generator: Adobe Illustrator 23.0.4, SVG Export Plug-In . SVG Version: 6.00 Build 0)  -->
<svg version="1.1" id="Layer_1" focusable="false" xmlns="http://www.w3.org/2000/svg" xmlns:xlink="http://www.w3.org/1999/xlink"
	 x="0px" y="0px" viewBox="0 0 20 120" style="enable-background:new 0 0 20 120;" xml:space="preserve">
<style type="text/css">
	.st0{fill:none;stroke:#F1F1F1;stroke-miterlimit:10;}
	.st1{fill:#FF5025;stroke:#EE0D00;stroke-miterlimit:10;}
</style>
<path d="M-38.5,224.1c0.6,0.4,0.9,0.5,0.9,0.5L-38.5,224.1z"/>
<path d="M55.3,224.6l0.2-0.1C55.2,224.6,55.2,224.7,55.3,224.6z"/>
<path class="st0" d="M15.2,52.5H4.8c-1.2,0-2.3-1-2.3-2.3V39.8c0-1.2,1-2.3,2.3-2.3h10.5c1.2,0,2.3,1,2.3,2.3v10.5
	C17.5,51.5,16.5,52.5,15.2,52.5z"/>
<path class="st0" d="M10,82.5L10,82.5c-4.1,0-7.5-3.4-7.5-7.5v0c0-4.1,3.4-7.5,7.5-7.5h0c4.1,0,7.5,3.4,7.5,7.5v0
	C17.5,79.1,14.1,82.5,10,82.5z"/>
<path class="st0" d="M10,112.5L10,112.5c-4.1,0-7.5-3.4-7.5-7.5v0c0-4.1,3.4-7.5,7.5-7.5h0c4.1,0,7.5,3.4,7.5,7.5v0
	C17.5,109.1,14.1,112.5,10,112.5z"/>
<path class="st0" d="M15.2,22.5H4.8c-1.2,0-2.3-1-2.3-2.3V9.8c0-1.2,1-2.3,2.3-2.3h10.5c1.2,0,2.3,1,2.3,2.3v10.5
	C17.5,21.5,16.5,22.5,15.2,22.5z"/>
<path class="st1" d="M12.9,13.6c-1-0.2,3-4.9-4.1-10.6c0,0,0.9,2.9-3.7,9.5c-4.4,6.2,1.4,10.1,2,10.5c-0.4-0.3-2.8-2.1,0.6-7.7
	c0.7-1.1,1.5-2.1,2.6-4.3c0,0,0.9,1.3,0.5,4.2c-0.8,4.4,3.2,3.1,3.3,3.2c1.4,1.6-1.1,4.4-1.3,4.6c0.3-0.2,7-4.7,2-11.2
	C14.3,12.1,13.9,13.8,12.9,13.6z"/>
<path class="st1" d="M12.9,73.1c-1-0.2,3-4.9-4.1-10.6c0,0,0.9,2.9-3.7,9.5c-4.4,6.2,1.4,10.1,2,10.5c-0.4-0.3-2.8-2.1,0.6-7.7
	c0.7-1.1,1.5-2.1,2.6-4.3c0,0,0.9,1.3,0.5,4.2c-0.8,4.4,3.2,3.1,3.3,3.2c1.4,1.6-1.1,4.4-1.3,4.6c0.3-0.2,7-4.7,2-11.2
	C14.3,71.6,13.9,73.3,12.9,73.1z"/>
</svg>
